<?xml version="1.0" encoding="UTF-8" standalone="no"?>
<svg
   xmlns:dc="http://purl.org/dc/elements/1.1/"
   xmlns:cc="http://creativecommons.org/ns#"
   xmlns:rdf="http://www.w3.org/1999/02/22-rdf-syntax-ns#"
   xmlns:svg="http://www.w3.org/2000/svg"
   xmlns="http://www.w3.org/2000/svg"
   xmlns:sodipodi="http://sodipodi.sourceforge.net/DTD/sodipodi-0.dtd"
   xmlns:inkscape="http://www.inkscape.org/namespaces/inkscape"
   viewBox="0 0 110 110"
   x="0px"
   y="0px"
   version="1.1"
   id="svg36"
   sodipodi:docname="noun_1422990_cc.svg"
   width="110"
   height="110"
   inkscape:version="0.92.2 5c3e80d, 2017-08-06">
  <metadata
     id="metadata42">
    <rdf:RDF>
      <cc:Work
         rdf:about="">
        <dc:format>image/svg+xml</dc:format>
        <dc:type
           rdf:resource="http://purl.org/dc/dcmitype/StillImage" />
        <dc:title>Artboard 4</dc:title>
      </cc:Work>
    </rdf:RDF>
  </metadata>
  <defs
     id="defs40" />
  <sodipodi:namedview
     pagecolor="#ffffff"
     bordercolor="#666666"
     borderopacity="1"
     objecttolerance="10"
     gridtolerance="10"
     guidetolerance="10"
     inkscape:pageopacity="0"
     inkscape:pageshadow="2"
     inkscape:window-width="640"
     inkscape:window-height="480"
     id="namedview38"
     showgrid="false"
     fit-margin-top="10"
     fit-margin-left="10"
     fit-margin-right="10"
     fit-margin-bottom="10"
     inkscape:zoom="1.888"
     inkscape:cx="58.027171"
     inkscape:cy="74.883451"
     inkscape:window-x="0"
     inkscape:window-y="0"
     inkscape:window-maximized="0"
     inkscape:current-layer="svg36" />
  <title
     id="title2">Artboard 4</title>
  <path
     d="m 42.562415,29.70068 a 6.74,6.74 0 0 0 -2.06,9 l 12.32,21.24 a 2.28,2.28 0 0 0 2.6,1.05 v 0 a 2.28,2.28 0 0 0 1.65,-2.27 l -0.84,-24.6 a 6.74,6.74 0 0 0 -6.81,-6.51 10.48,10.48 0 0 0 0.55,-4.1 c -0.41,-4.52 -4.16,-7.79 -4.32,-7.92 a 1,1 0 0 0 -1.64,0.9 c 0,0 0.48,3.39 0.85,7.49 0,0.34 0.06,0.7 0.09,1 l -0.48,-0.93 c -1.85,-3.67 -3.23,-6.77 -3.24,-6.8 a 1,1 0 0 0 -1.87,0.11 c -0.06,0.2 -1.51,5 0.53,9 a 10.52,10.52 0 0 0 2.67,3.34 z m 9.72,0.84 a 4.72,4.72 0 0 1 2,3.68 l 0.07,2.16 -3.58,1 a 1,1 0 1 0 0.55,1.92 l 3.09,-0.89 0.7,20.38 a 0.28,0.28 0 0 1 -0.52,0.15 l -5,-8.73 2.61,-0.75 a 1,1 0 1 0 -0.55,-1.92 l -2.88,0.83 a 1,1 0 0 0 -0.19,0.1 l -2.17,-3.53 2.13,-0.61 a 1.0254024,1.0254024 0 1 0 -0.57,-1.97 l -2.61,0.75 -2.58,-4.46 1.89,-0.54 a 1,1 0 1 0 -0.55,-1.92 l -2.28,0.65 a 4.74,4.74 0 0 1 3.18,-6.11 l 3.14,-0.9 a 4.78,4.78 0 0 1 1.32,-0.19 4.72,4.72 0 0 1 2.8,0.91 z m -4.31,-6.85 a 9.07,9.07 0 0 1 -0.78,4.34 v 0 c -0.09,-1.45 -0.21,-2.88 -0.33,-4.25 -0.14,-1.57 -0.3,-3 -0.44,-4.25 a 9.22,9.22 0 0 1 1.55,4.16 z m -5.32,1.25 c 0.62,1.23 1.28,2.5 2,3.78 v 0 a 9.07,9.07 0 0 1 -3,-3.27 9.22,9.22 0 0 1 -0.87,-4.34 c 0.52,1.14 1.19,2.47 1.87,3.83 z"
     id="path4"
     inkscape:connector-curvature="0" />
  <path
     d="m 31.312415,37.06068 a 56,56 0 0 0 4.2,7.1 l 0.68,1 a 1,1 0 0 0 1.64,-1.14 l -0.68,-1 a 54.08,54.08 0 0 1 -3.75,-6.24 c 0.84,-1.27 4.21,-6.79 2.75,-12.1 v 0 c -1.63,-5.92 -8.57,-9 -8.86,-9.13 a 1,1 0 0 0 -1.21,0.39 c -0.19,0.26 -4.57,6.46 -2.94,12.38 1.35,4.85 6.33,7.8 8.17,8.74 z m -4.06,-19.29 c 1.73,0.92 5.89,3.49 7,7.45 v 0 c 1,3.58 -0.77,7.48 -1.87,9.42 a 54,54 0 0 1 -3.24,-9.18 l -0.29,-1.15 a 1.0004624,1.0004624 0 0 0 -1.94,0.49 l 0.27,1.14 a 56,56 0 0 0 2.64,7.84 c -1.85,-1.33 -4,-3.38 -4.75,-6.06 -1.1,-3.93 1.17,-8.28 2.18,-9.95 z"
     id="path6"
     inkscape:connector-curvature="0" />
  <path
     d="m 23.892415,55.45068 a 2.85,2.85 0 0 1 -5,-0.49 1.0000125,1.0000125 0 0 0 -1.85,0.76 4.85,4.85 0 0 0 8.52,0.83 1.0026216,1.0026216 0 1 0 -1.67,-1.11 z"
     id="path8"
     inkscape:connector-curvature="0" />
  <path
     d="m 39.852415,59.37068 a 3.84,3.84 0 1 0 3.84,-3.84 3.85,3.85 0 0 0 -3.84,3.84 z m 5.68,0 a 1.84,1.84 0 1 1 -1.84,-1.84 1.84,1.84 0 0 1 1.84,1.84 z"
     id="path10"
     inkscape:connector-curvature="0" />
  <path
     d="m 89.182415,33.71068 a 3.84,3.84 0 1 0 -3.84,-3.84 3.85,3.85 0 0 0 3.84,3.84 z m 0,-5.68 a 1.84,1.84 0 1 1 -1.84,1.84 1.84,1.84 0 0 1 1.84,-1.85 z"
     id="path12"
     inkscape:connector-curvature="0" />
  <path
     d="m 60.922415,27.06068 a 3.84,3.84 0 1 0 -3.84,-3.84 3.85,3.85 0 0 0 3.84,3.84 z m 0,-5.68 a 1.84,1.84 0 1 1 -1.84,1.84 1.84,1.84 0 0 1 1.84,-1.84 z"
     id="path14"
     inkscape:connector-curvature="0" />
  <path
     d="m 18.102415,40.32068 a 3.84,3.84 0 1 0 -3.84,-3.84 3.85,3.85 0 0 0 3.84,3.84 z m 0,-5.68 a 1.84,1.84 0 1 1 -1.84,1.84 1.84,1.84 0 0 1 1.84,-1.84 z"
     id="path16"
     inkscape:connector-curvature="0" />
  <path
     d="m 31.522415,77.10068 a 1.0034441,1.0034441 0 0 0 -1.74,1 q 0.47,0.83 1,1.62 a 1.0026216,1.0026216 0 0 0 1.67,-1.11 q -0.48,-0.74 -0.93,-1.51 z"
     id="path18"
     inkscape:connector-curvature="0" />
  <path
     d="m 43.212415,87.94068 c -0.65,-0.33 -1.3,-0.69 -1.93,-1.06 -0.63,-0.37 -1.49,-0.94 -2.19,-1.44 a 27.93,27.93 0 0 1 -3.39,-2.89 l -0.38,-0.37 a 7.06,7.06 0 0 1 -0.62,-0.67 1.0006248,1.0006248 0 0 0 -1.53,1.29 8.68,8.68 0 0 0 0.76,0.82 l 0.35,0.35 a 29.93,29.93 0 0 0 3.64,3.1 c 0.75,0.54 1.53,1.06 2.34,1.54 0.81,0.48 1.35,0.78 2,1.13 a 1,1 0 1 0 0.9,-1.78 z"
     id="path20"
     inkscape:connector-curvature="0" />
  <path
     d="m 100.43242,32.16068 a 2.73,2.73 0 0 0 -4.150005,0.78 l -2.9,5.28 a 7.16,7.16 0 0 0 -3.94,-0.34 7.66,7.66 0 0 0 -3.82,2.19 l -4.3,4.39 a 63.75,63.75 0 0 1 -15.29,11.48 l -4.69,2.53 a 16.3,16.3 0 0 0 -7.16,7.47 c -0.15,0.33 -0.27,0.68 -0.4,1 h -16.45 0.06 a 1,1 0 0 0 0.5,-1.19 l -3.28,-10.57 a 4.85,4.85 0 1 0 -3.14,-9.08 c -0.08,0 -0.14,0.1 -0.22,0.14 a 6.25,6.25 0 0 0 -0.28,-0.66 6.17,6.17 0 0 0 -11.68,2.43 6.18,6.18 0 0 0 -6.63,9.47 6.1899596,6.1899596 0 1 0 11,5.68 l 2.84,3.78 h -4.53 a 1,1 0 0 0 -1,1 c 0,18.25 14.39,30.999998 35,30.999998 20.61,0 35,-12.749998 35,-30.999998 a 1,1 0 0 0 -1,-1 h -1.12 l 9.18,-18.05 a 7.49,7.49 0 0 0 -0.33,-7.17 l 3.370005,-6.16 a 2.74,2.74 0 0 0 -0.64,-3.4 z m -76.330005,28.32 v 0 a 1,1 0 0 0 -0.7,-0.46 1,1 0 0 0 -1.12,0.86 4.19,4.19 0 1 1 -7.6,-2.94 c 0,0 0,0 0,-0.07 a 1.38,1.38 0 0 0 0.13,-0.37 1,1 0 0 0 -0.21,-0.73 v 0 a 4.19,4.19 0 0 1 5.2,-6.4 1,1 0 0 0 0.53,0.11 v 0 h 0.21 a 1,1 0 0 0 0.76,-1.19 4.19,4.19 0 1 1 8.27,-1.17 1,1 0 0 0 0.38,0.71 v 0 a 1,1 0 0 0 0.16,0.08 l 0.13,0.07 a 1,1 0 0 0 1.11,-0.31 2.85,2.85 0 1 1 3.62,4.27 2.86,2.86 0 0 1 -1.58,0.29 1,1 0 0 0 -1.1,0.89 1,1 0 0 0 0.11,0.54 v 0 l 3.37,10.81 -1.92,1 -3.6,-7.14 a 1.0017609,1.0017609 0 1 0 -1.79,0.9 l 3.34,6.71 h -2.83 z m 31.87,36.46 v 0 c -16.95,0 -29.12,-8.59 -32.22,-22 h 64.44 c -3.1,13.41 -15.27,22 -32.22,22 z m 32.6,-24 h -65.2 a 31.31,31.31 0 0 1 -0.4,-4 h 66 a 31.32,31.32 0 0 1 -0.4,4 z m -32.6,-6 c 0,-0.06 0,-0.13 0.07,-0.19 a 14.29,14.29 0 0 1 6.28,-6.49 l 4.65,-2.53 a 65.77,65.77 0 0 0 15.78,-11.87 l 1.44,-1.47 1.7,0.16 a 2.51,2.51 0 0 1 2,1.52 4.5,4.5 0 0 0 3.22,2.67 h 0.16 a 2.51,2.51 0 0 1 1.7,1.42 l 1,2.18 v 0 l -7.36,14.6 z m 43.35,-32.34 -3.65,6.66 a 0.94,0.94 0 0 0 0,0.14 1,1 0 0 0 -0.06,0.2 2.32,2.32 0 0 0 0,0.38 1,1 0 0 0 0.08,0.2 0.94,0.94 0 0 0 0.06,0.13 5.58,5.58 0 0 1 0.52,5.69 l -1.06,2.09 -0.35,-0.76 a 4.52,4.52 0 0 0 -3.15,-2.52 h -0.16 a 2.5,2.5 0 0 1 -1.79,-1.48 4.53,4.53 0 0 0 -3.61,-2.73 h -0.18 l 1.05,-1.08 a 5.67,5.67 0 0 1 2.81,-1.64 5.49,5.49 0 0 1 3.55,0.54 1,1 0 0 0 0.16,0 1,1 0 0 0 0.19,0 1,1 0 0 0 0.19,0 0.59,0.59 0 0 0 0.35,-0.12 1,1 0 0 0 0.16,-0.1 1,1 0 0 0 0.13,-0.15 1,1 0 0 0 0.11,-0.13 l 3.32,-6 a 0.73,0.73 0 0 1 1.11,-0.21 0.74,0.74 0 0 1 0.22,0.89 z"
     id="path22"
     inkscape:connector-curvature="0" />
  <path
     d="m 82.352415,49.25068 c -1.53,1.35 -3.15,2.63 -4.81,3.83 a 1,1 0 1 0 1.17,1.62 c 1.71,-1.23 3.38,-2.56 5,-3.95 a 1,1 0 1 0 -1.32,-1.5 z"
     id="path24"
     inkscape:connector-curvature="0" />
  <path
     d="m 70.552415,57.45068 -4.7,2.49 a 17.07,17.07 0 0 0 -4.88,3.92 1,1 0 1 0 1.51,1.31 15.09,15.09 0 0 1 4.3,-3.42 l 4.69,-2.53 a 1.0000125,1.0000125 0 0 0 -0.95,-1.76 z"
     id="path26"
     inkscape:connector-curvature="0" />
  <path
     d="m 68.972415,48.78068 a 1,1 0 0 0 1.29,0.29 c 1.16,-0.63 11.32,-6.3 12.52,-11.61 a 7.48,7.48 0 0 0 -1.67,-6.94 10.2,10.2 0 0 0 -3.19,-2.28 9.29,9.29 0 0 0 4.83,-3.14 v 0 c 2.22,-3.16 1.35,-7.52 1.32,-7.7 a 1,1 0 0 0 -1.1,-0.8 11.92,11.92 0 0 0 -2.18,0.47 15.14,15.14 0 0 0 -2.28,-5.44 1,1 0 0 0 -1.3,-0.29 c -0.2,0.11 -5,2.83 -6,7.42 -0.72,3.19 0.58,6.34 1.49,8 a 11.3,11.3 0 0 0 -5.64,0.59 7.48,7.48 0 0 0 -4.48,5.59 c -1.19,5.3 5.57,14.78 6.39,15.84 z m 12.11,-24.84 v 0 a 7.93,7.93 0 0 1 -4.57,2.61 7.89,7.89 0 0 1 1.15,-5.14 7.94,7.94 0 0 1 4.57,-2.61 7.89,7.89 0 0 1 -1.15,5.14 z m -7.91,-4.74 c 0.61,-2.7 3,-4.69 4.23,-5.59 a 12.66,12.66 0 0 1 1.5,4.24 8.09,8.09 0 0 0 -2.86,2.35 9.34,9.34 0 0 0 -1.57,5.64 c -0.75,-1.43 -1.87,-4.08 -1.3,-6.64 z m -8.64,14.17 a 5.49,5.49 0 0 1 3.3,-4.15 8.2,8.2 0 0 1 3.14,-0.56 14.11,14.11 0 0 1 3.08,0.37 10.49,10.49 0 0 1 5.53,2.83 5.49,5.49 0 0 1 1.2,5.16 c -0.81,3.46 -7.43,7.92 -10.76,9.86 -2.17,-3.16 -6.26,-10.05 -5.49,-13.51 z"
     id="path28"
     inkscape:connector-curvature="0" />
  <path
     d="m 70.182415,40.49068 c -1.16,-2.6 -1.62,-4.67 -1.32,-6 a 5.91,5.91 0 0 1 1.17,-2.5 1.0012492,1.0012492 0 1 0 -1.54,-1.28 7.87,7.87 0 0 0 -1.58,3.34 c -0.4,1.77 0.09,4.21 1.45,7.25 a 1.002659,1.002659 0 0 0 1.83,-0.82 z"
     id="path30"
     inkscape:connector-curvature="0" />
</svg>
