<?xml version="1.0" standalone="no"?>
<!DOCTYPE svg PUBLIC "-//W3C//DTD SVG 20010904//EN"
 "http://www.w3.org/TR/2001/REC-SVG-20010904/DTD/svg10.dtd">
<svg version="1.0" xmlns="http://www.w3.org/2000/svg"
 width="1280.000000pt" height="1267.000000pt" viewBox="0 0 1280.000000 1267.000000"
 preserveAspectRatio="xMidYMid meet">
<metadata>
Created by potrace 1.15, written by Peter Selinger 2001-2017
</metadata>
<g transform="translate(0.000000,1267.000000) scale(0.100000,-0.100000)"
fill="#000000" stroke="none">
<path d="M682 11959 c-117 -22 -219 -110 -284 -245 -38 -79 -42 -93 -46 -188
-4 -96 -2 -109 28 -200 18 -54 51 -126 74 -160 46 -70 311 -340 373 -380 39
-26 48 -28 156 -27 l115 0 19 -57 c56 -160 132 -415 143 -477 7 -38 23 -108
36 -155 12 -47 39 -146 59 -220 20 -74 50 -175 65 -225 16 -49 54 -178 85
-285 31 -107 65 -222 75 -255 10 -33 30 -105 45 -160 32 -118 111 -385 160
-540 19 -60 46 -146 59 -190 14 -44 38 -125 55 -180 17 -55 35 -121 40 -146 6
-26 21 -77 34 -115 14 -38 31 -94 40 -124 29 -101 78 -264 98 -322 10 -31 28
-94 40 -140 25 -100 48 -181 101 -353 22 -71 49 -161 59 -198 10 -37 21 -72
24 -77 8 -14 62 -191 100 -330 37 -135 244 -767 318 -970 96 -264 141 -349
245 -467 88 -100 147 -122 335 -123 31 0 39 -5 47 -25 5 -14 24 -34 42 -45 18
-11 33 -22 33 -24 0 -2 -36 -28 -80 -58 -209 -139 -298 -222 -457 -425 -58
-75 -149 -218 -188 -298 -55 -112 -186 -482 -213 -600 -2 -11 -16 -63 -30
-115 -49 -184 -70 -318 -64 -414 4 -80 9 -97 52 -185 37 -75 63 -111 116 -163
106 -105 181 -133 382 -144 65 -4 117 -11 117 -16 0 -4 -6 -8 -13 -8 -7 0 -24
-10 -36 -21 -20 -19 -22 -28 -17 -66 5 -41 66 -166 87 -179 5 -3 9 -16 9 -29
0 -13 4 -26 9 -30 19 -11 44 -111 43 -170 0 -33 -9 -96 -19 -140 -28 -119 -18
-261 27 -370 28 -68 44 -91 104 -148 109 -104 162 -125 323 -128 78 -2 97 2
153 26 36 16 80 39 98 53 48 34 120 128 149 192 13 30 41 87 60 125 35 70 73
215 73 283 0 19 7 73 15 121 8 47 21 147 30 222 l16 135 -25 69 c-14 38 -23
71 -21 73 12 12 2048 -6 2513 -22 29 -1 37 -14 66 -111 36 -118 39 -143 22
-216 -9 -36 -16 -108 -17 -160 -1 -108 21 -183 83 -280 40 -62 142 -153 198
-177 58 -24 174 -40 224 -31 131 24 241 121 285 251 15 45 22 53 49 59 57 12
82 48 122 174 18 61 37 263 40 439 0 18 6 19 103 13 56 -4 208 -7 337 -8 293
-2 343 -7 348 -34 7 -36 21 -42 111 -49 l88 -7 10 -52 c9 -46 29 -116 78 -282
37 -124 42 -199 24 -336 -38 -286 115 -542 362 -605 147 -38 337 26 446 150
35 40 93 155 93 186 0 5 13 38 29 73 27 59 44 132 98 422 8 44 19 98 23 120 5
22 14 83 21 136 14 121 6 143 -68 179 -29 14 -51 30 -49 35 1 6 49 11 112 12
60 1 176 6 259 12 116 8 152 8 161 -2 6 -7 21 -46 33 -87 13 -41 36 -115 51
-165 43 -136 46 -185 16 -274 -30 -88 -33 -160 -10 -264 32 -141 118 -269 224
-331 63 -37 199 -76 265 -76 49 0 133 24 195 55 46 23 160 134 160 155 0 7 8
24 18 38 50 72 124 334 152 537 5 39 21 126 35 195 22 106 24 132 15 171 -16
67 -43 105 -84 119 -20 6 -36 15 -36 18 0 4 46 8 103 10 78 2 108 7 127 20 17
13 67 23 156 34 199 24 258 62 271 176 6 58 -11 104 -54 146 -68 65 -99 70
-763 105 -265 15 -529 30 -686 41 -78 6 -189 10 -248 10 -97 0 -306 17 -315
26 -2 2 10 35 27 72 42 89 42 138 3 176 -41 40 -80 45 -321 45 -118 0 -258 5
-310 10 -52 5 -144 11 -205 12 -98 2 -163 9 -232 24 -15 4 -32 23 -49 58 -33
64 -35 156 -5 262 10 39 28 102 39 140 11 39 48 171 82 294 81 294 187 576
263 699 69 112 136 317 129 396 -4 42 -11 55 -51 95 -26 25 -62 55 -81 66 -48
28 -46 49 5 53 83 5 559 68 775 101 69 11 166 23 215 26 50 4 140 13 200 21
149 19 596 66 795 84 341 31 449 44 480 56 78 31 108 124 124 379 l11 180 70
9 c137 17 168 31 218 103 42 61 55 134 143 808 13 105 31 226 38 270 8 44 17
112 21 150 3 39 10 84 15 100 5 17 19 93 30 170 11 77 28 194 39 260 11 66 27
165 35 220 9 55 21 127 26 160 6 33 15 94 20 135 5 41 14 99 21 129 18 92 35
255 29 281 -4 18 -23 33 -68 56 -78 39 -80 41 -51 53 43 16 64 49 64 101 0 42
-4 52 -37 84 -47 45 -71 55 -161 61 -40 3 -97 10 -127 16 -30 5 -131 16 -225
24 -93 8 -206 20 -250 25 -80 11 -738 84 -1255 140 -151 17 -311 35 -355 40
-44 5 -156 18 -250 29 -93 11 -258 31 -365 45 -107 13 -224 27 -260 31 -135
13 -557 65 -690 85 -86 13 -292 39 -405 51 -116 11 -394 47 -466 59 -30 6 -80
10 -110 10 -64 1 -161 22 -166 37 -4 11 91 395 107 430 7 16 21 25 50 29 37 6
44 12 66 57 29 57 23 89 -21 109 -32 14 -32 21 6 203 39 188 38 263 -6 349
-36 72 -89 112 -165 127 -34 7 -293 13 -675 16 l-620 5 -95 100 c-52 56 -97
105 -98 110 -2 5 8 18 22 29 32 25 49 81 35 117 -6 15 -34 51 -63 82 -28 30
-78 89 -111 130 -32 41 -108 125 -169 185 -132 131 -149 139 -358 156 -126 11
-140 10 -219 -11 -46 -12 -106 -34 -134 -50 -27 -16 -80 -45 -116 -64 -37 -19
-80 -51 -95 -70 l-29 -35 -580 -6 c-319 -3 -643 -8 -720 -10 -77 -3 -542 -8
-1033 -11 l-893 -6 -47 43 c-113 104 -279 224 -330 239 -20 6 -86 13 -147 16
-60 2 -132 6 -160 8 -27 1 -69 -1 -93 -5z m4011 -679 c18 -22 50 -46 69 -55
20 -8 53 -35 75 -61 21 -26 64 -75 96 -109 31 -34 57 -67 57 -73 0 -5 -23 -15
-52 -21 -112 -25 -181 -72 -249 -173 -51 -74 -72 -124 -99 -234 -12 -49 -25
-92 -29 -96 -3 -4 -123 -8 -266 -9 -143 0 -384 -5 -535 -9 -151 -5 -540 -12
-865 -15 -324 -3 -597 -6 -605 -7 -47 -4 -39 -13 -183 217 -180 286 -204 318
-377 498 -58 60 -105 117 -105 126 0 15 60 16 685 18 377 2 780 7 895 13 116
6 359 11 540 11 182 0 413 4 515 8 102 4 233 8 292 9 l106 2 35 -40z m-3164
-244 c51 -38 118 -107 172 -176 36 -46 109 -165 109 -178 0 -4 -33 -7 -73 -7
-66 0 -76 -3 -117 -33 -52 -38 -95 -99 -112 -156 -15 -53 -25 -66 -53 -66 -20
0 -26 10 -44 73 -39 134 -94 302 -108 331 -14 27 -13 30 14 60 16 17 55 66 87
109 31 42 62 77 68 77 6 0 31 -15 57 -34z m5852 -211 c36 -19 59 -67 59 -123
0 -69 -55 -347 -73 -370 -5 -7 -863 -11 -873 -5 -13 10 -53 81 -164 299 -51
98 -97 183 -101 189 -5 5 -9 16 -9 24 0 12 73 13 565 8 489 -6 569 -9 596 -22z
m-1415 -32 c11 -21 56 -99 99 -173 97 -166 137 -247 133 -268 -2 -12 -18 -19
-53 -24 -67 -8 -165 -9 -204 -2 -27 6 -31 10 -31 40 0 23 -9 44 -27 64 -24 27
-37 31 -96 37 -37 3 -69 9 -72 12 -4 7 -64 260 -72 305 -3 15 -1 31 5 35 6 4
75 8 154 9 l143 3 21 -38z m-807 -4 c34 -25 93 -38 177 -39 64 0 74 -7 74 -50
0 -28 -55 -51 -101 -44 -35 6 -42 3 -75 -32 -20 -22 -50 -54 -68 -71 -28 -29
-30 -35 -18 -54 7 -11 11 -24 7 -27 -10 -11 -145 -21 -287 -21 -158 -1 -151
-7 -118 96 44 142 110 217 213 245 90 24 161 23 196 -3z m-3375 -340 c24 -11
42 -37 32 -46 -8 -8 -116 18 -116 27 0 11 30 29 47 30 7 0 23 -5 37 -11z
m2738 -294 c1 -24 1 -38 -6 -90 -3 -22 -10 -85 -16 -140 -7 -55 -18 -139 -26
-188 -8 -48 -14 -100 -14 -116 0 -17 -4 -32 -9 -35 -8 -5 -161 11 -324 34 -37
6 -85 10 -106 10 -22 0 -102 9 -178 19 -76 11 -183 24 -238 30 -55 6 -194 23
-310 37 -115 14 -268 32 -340 40 -71 8 -179 21 -239 29 -126 16 -118 9 -191
145 -25 47 -64 116 -86 154 -22 38 -38 71 -35 73 15 15 247 19 1123 19 986 -1
993 -1 995 -21z m-2586 -101 c22 -61 48 -122 57 -135 25 -35 22 -51 -10 -47
-21 2 -27 8 -25 23 1 11 -16 42 -39 70 -45 56 -139 191 -139 200 0 3 26 5 57
3 l58 -3 41 -111z m5137 96 c-1 -8 -9 -55 -17 -105 -9 -49 -23 -135 -32 -190
-17 -109 -29 -149 -42 -141 -5 3 -40 10 -78 16 -121 18 -114 14 -108 68 4 26
17 92 29 147 13 55 26 120 30 145 13 86 5 81 118 78 84 -2 102 -6 100 -18z
m220 10 c10 0 17 -8 17 -21 0 -33 -92 -423 -103 -437 -7 -9 -24 -11 -56 -6
-25 4 -47 8 -49 9 -3 3 82 410 94 454 3 10 14 12 42 7 20 -3 45 -6 55 -6z
m-958 -45 c19 -31 24 -51 19 -72 -15 -67 -58 -219 -64 -226 -3 -4 -50 -2 -104
5 l-97 12 6 41 c8 52 53 234 64 261 8 19 18 22 80 22 l71 1 25 -44z m427 0
c-7 -80 -38 -210 -50 -210 -15 0 -144 240 -134 249 3 4 47 5 97 4 l90 -3 -3
-40z m-5165 -69 c19 -34 49 -77 66 -96 27 -30 28 -35 13 -38 -10 -2 -38 -1
-61 3 -39 5 -44 10 -51 38 -3 18 -17 65 -30 106 -38 121 -13 116 63 -13z
m4381 97 c54 -6 54 -6 48 -37 -21 -111 -49 -235 -55 -244 -9 -15 -112 -4 -116
12 -1 6 -8 43 -15 81 -7 39 -19 94 -26 123 -8 30 -12 58 -8 63 6 10 95 12 172
2z m-778 -98 l32 -83 -40 -164 c-22 -89 -46 -190 -53 -223 -7 -33 -15 -63 -18
-67 -11 -13 -456 36 -474 52 -8 7 3 173 23 360 7 58 13 124 13 147 1 23 4 43
7 46 3 3 100 8 215 12 116 4 211 8 213 10 1 1 13 0 26 -2 19 -4 30 -21 56 -88z
m292 84 c16 -9 18 -20 16 -77 -3 -61 -5 -67 -23 -64 -11 2 -34 3 -52 3 -29 -1
-33 3 -42 37 -12 40 -14 95 -6 104 10 10 88 7 107 -3z m-3292 -80 c11 -21 45
-78 76 -125 31 -48 52 -90 47 -95 -4 -4 -23 -5 -41 -1 -28 6 -37 14 -49 47
-21 58 -73 215 -73 221 0 14 23 -12 40 -47z m4276 -156 c15 -27 38 -63 52 -81
14 -18 22 -35 18 -39 -6 -7 -125 12 -134 22 -8 8 19 145 28 145 4 0 21 -21 36
-47z m-1003 -138 c15 -19 37 -35 47 -35 24 0 25 -9 5 -123 -24 -134 -26 -137
-82 -136 -76 1 -218 24 -217 34 1 6 13 48 26 95 14 47 32 108 40 135 13 47 16
50 44 47 16 -1 43 2 59 7 46 14 48 13 78 -24z m413 -247 c10 -15 6 -80 -5 -91
-4 -4 -15 -5 -24 -1 -13 5 -17 19 -17 55 0 42 3 49 19 49 11 0 23 -6 27 -12z
m-3971 -22 c66 -4 151 -12 188 -17 59 -10 70 -15 78 -36 8 -21 4 -29 -26 -57
-40 -38 -44 -62 -14 -100 15 -20 29 -26 58 -26 l37 0 43 -132 c24 -73 60 -180
81 -238 21 -58 62 -175 90 -260 29 -85 95 -280 146 -434 52 -153 94 -283 94
-288 0 -6 -26 -7 -62 -3 -83 8 -227 14 -365 15 -94 0 -113 3 -113 15 0 8 -9
41 -20 72 -10 32 -33 112 -50 178 -41 160 -62 235 -130 460 -32 105 -79 267
-105 360 -45 163 -102 360 -131 454 -7 24 -12 47 -9 51 3 4 24 4 47 0 24 -5
97 -11 163 -14z m4218 -12 c37 -4 70 -11 73 -15 3 -5 2 -25 -2 -45 l-6 -35
-99 4 c-54 3 -103 8 -109 12 -13 8 -13 51 1 77 8 16 17 19 42 14 18 -3 63 -8
100 -12z m421 -80 c42 -6 46 -9 40 -28 -8 -27 -4 -25 -49 -30 -49 -6 -75 8
-75 39 0 28 7 29 84 19z m294 -57 c26 -20 13 -37 -28 -37 -41 0 -58 15 -47 44
6 15 53 11 75 -7z m231 -32 c12 -12 -11 -32 -34 -29 -33 3 -39 9 -31 30 5 12
13 14 34 9 15 -4 29 -8 31 -10z m306 -25 c103 -10 151 -27 132 -46 -7 -8 -245
11 -284 22 -13 4 -23 13 -23 20 0 17 27 18 175 4z m-3837 -35 c2 -16 22 -100
44 -185 22 -85 51 -198 63 -250 35 -145 86 -342 97 -370 21 -53 76 -285 70
-291 -15 -14 -90 -20 -97 -9 -9 15 -18 51 -49 200 -13 63 -36 167 -51 230 -65
284 -76 334 -111 490 -54 245 -53 222 -8 218 35 -3 39 -6 42 -33z m-166 -110
c16 -71 35 -161 43 -200 15 -78 76 -334 98 -417 8 -29 25 -98 37 -153 13 -55
34 -142 47 -194 13 -51 22 -95 20 -98 -7 -7 -71 86 -112 161 -21 39 -69 122
-108 185 -39 64 -94 161 -122 216 -29 55 -66 123 -83 150 -17 28 -67 113 -111
190 -44 77 -98 169 -121 205 -22 36 -40 70 -40 75 0 6 76 10 212 10 l212 0 28
-130z m-788 108 c2 -10 25 -103 51 -208 25 -104 52 -210 60 -235 8 -25 21 -74
30 -110 9 -36 24 -92 34 -125 10 -33 24 -85 31 -115 7 -30 39 -154 71 -274 32
-121 59 -224 59 -229 0 -4 -10 -7 -22 -5 -18 2 -29 24 -65 128 -49 137 -150
448 -208 635 -21 66 -70 216 -109 333 -40 117 -70 214 -68 217 3 3 34 5 68 5
51 0 64 -3 68 -17z m5231 -13 c93 -12 174 -25 180 -31 12 -12 -13 -30 -35 -24
-8 2 -49 6 -90 10 -81 6 -211 23 -247 31 -15 3 -23 12 -23 24 0 16 5 19 23 15
12 -3 98 -14 192 -25z m-3942 3 c38 -3 70 -11 71 -17 2 -6 13 -54 25 -106 12
-52 55 -232 97 -400 68 -275 89 -361 139 -594 10 -45 12 -73 6 -79 -16 -16
-100 11 -167 55 l-61 40 -18 82 c-10 44 -28 122 -40 171 -12 50 -28 115 -35
145 -7 30 -18 73 -25 95 -11 36 -35 124 -80 295 -40 153 -74 313 -69 322 4 6
24 8 48 4 22 -3 72 -9 109 -13z m452 -56 c77 -12 80 -13 77 -37 -1 -14 -7 -68
-13 -120 -5 -52 -14 -157 -19 -234 -9 -138 -22 -188 -36 -130 -9 40 -43 168
-60 229 -30 105 -74 278 -74 291 0 17 17 17 125 1z m4045 -7 c160 -14 190 -19
190 -36 0 -17 -29 -18 -193 -4 -168 15 -187 18 -187 35 0 18 29 19 190 5z
m-3772 -76 c13 -39 36 -154 92 -464 67 -368 78 -435 75 -438 -2 -2 -41 -7 -87
-11 -45 -5 -95 -14 -110 -21 -26 -12 -48 -54 -48 -91 0 -18 -50 -36 -70 -24
-14 9 -12 54 5 160 9 50 20 131 25 180 6 50 15 128 20 175 6 47 15 150 20 230
9 132 24 268 36 328 7 33 27 22 42 -24z m4354 22 c128 -14 148 -19 148 -38 0
-11 -40 -9 -264 12 -130 12 -136 14 -136 37 0 13 9 15 63 9 34 -4 119 -13 189
-20z m-4102 -2 c46 -4 83 -12 85 -18 1 -6 10 -47 20 -91 9 -44 21 -89 25 -100
17 -43 17 -68 0 -152 -10 -49 -25 -131 -33 -183 -23 -139 -57 -280 -68 -280
-5 0 -9 11 -9 23 0 13 -13 90 -30 171 -48 239 -111 632 -102 641 3 3 11 4 18
1 6 -2 48 -8 94 -12z m3790 -4 c0 -5 -4 -10 -10 -10 -5 0 -10 5 -10 10 0 6 5
10 10 10 6 0 10 -4 10 -10z m-3446 -57 c3 -10 17 -79 31 -153 15 -74 38 -191
51 -260 25 -124 27 -233 4 -270 -10 -16 -30 -5 -30 17 0 8 -13 59 -29 112 -16
53 -44 150 -61 216 l-33 119 18 111 c9 60 19 113 22 118 8 13 21 8 27 -10z
m213 6 c7 -7 6 -27 -3 -67 -8 -31 -14 -72 -14 -89 0 -18 -4 -33 -8 -33 -11 0
-45 177 -37 190 8 13 48 13 62 -1z m228 -22 l69 -12 14 -110 c19 -157 20 -150
-26 -375 -49 -240 -59 -291 -72 -385 -16 -106 -16 -107 -58 -103 -41 3 -31
-29 -97 307 -31 154 -35 191 -26 220 10 34 35 156 78 379 13 69 21 92 33 91 8
0 46 -6 85 -12z m481 -128 c-3 -34 -6 -70 -6 -80 0 -41 -19 -16 -25 34 -3 28
-8 64 -11 80 -5 24 -3 27 22 27 l27 0 -7 -61z m264 17 c84 -11 85 -11 88 -41
1 -16 -11 -102 -28 -190 -17 -88 -40 -216 -50 -285 -10 -69 -26 -152 -35 -185
-10 -33 -23 -93 -30 -133 -7 -40 -15 -75 -18 -79 -11 -10 -76 -12 -83 -2 -6
11 -35 177 -64 374 -19 129 -19 131 1 270 22 153 46 263 62 283 7 8 21 11 41
6 17 -4 69 -12 116 -18z m431 -45 c8 -8 -16 -170 -34 -230 -8 -25 -23 -76 -32
-113 -9 -38 -21 -68 -26 -68 -4 0 -11 17 -14 38 -3 20 -19 110 -35 198 -17 89
-30 169 -30 178 0 14 10 16 83 10 45 -4 85 -9 88 -13z m711 -87 c33 -5 38 -10
42 -37 3 -18 17 -106 31 -197 15 -91 35 -203 46 -250 91 -384 89 -462 -6 -267
-28 56 -94 188 -147 292 l-96 190 -21 134 c-11 74 -18 138 -14 143 5 9 71 6
165 -8z m327 -30 c51 -4 94 -11 97 -15 5 -9 8 -35 38 -289 19 -170 45 -429 48
-495 l3 -50 -101 -3 -101 -3 -6 38 c-3 21 -20 117 -37 213 -43 245 -79 473
-86 554 l-7 69 31 -6 c16 -3 71 -9 121 -13z m275 -46 c3 -13 8 -52 11 -88 4
-36 17 -130 30 -210 12 -80 30 -197 39 -260 9 -63 21 -143 27 -177 14 -77 9
-93 -31 -93 -39 0 -46 17 -55 135 -8 109 -42 414 -49 447 -10 42 -26 250 -20
259 11 18 44 9 48 -13z m291 -3 c39 -3 102 -13 141 -22 l71 -16 36 -176 c33
-166 48 -289 63 -529 l7 -102 -54 4 c-30 3 -111 8 -181 11 -71 4 -128 10 -128
14 0 4 -16 101 -36 216 -20 116 -40 239 -45 275 -4 36 -17 125 -27 198 -10 73
-16 134 -13 137 2 3 25 3 50 0 25 -2 78 -7 116 -10z m660 -71 c55 -3 105 -11
112 -17 6 -7 17 -46 23 -87 6 -41 15 -97 20 -125 9 -49 48 -305 72 -473 13
-96 8 -107 -52 -97 -19 3 -96 8 -170 11 -74 3 -149 7 -166 10 l-31 4 -11 113
c-7 61 -14 164 -17 227 -3 63 -10 185 -15 270 -6 85 -10 161 -10 169 0 11 14
13 73 7 39 -3 117 -9 172 -12z m-6029 -61 c20 -38 75 -131 122 -208 185 -305
242 -400 242 -407 0 -8 -241 -16 -252 -8 -3 3 -28 102 -53 220 -26 118 -56
244 -67 280 -10 36 -23 85 -28 110 -5 25 -12 53 -15 63 -4 9 -3 17 3 17 6 0
28 -30 48 -67z m6534 17 c228 -15 207 -6 215 -97 4 -43 11 -100 16 -128 5 -33
1 -130 -12 -280 -24 -275 -24 -278 -47 -271 -9 3 -84 8 -167 11 -82 4 -151 8
-152 9 -3 3 -84 647 -90 720 l-6 58 39 -6 c22 -3 113 -10 204 -16z m-2498
-182 c20 -106 44 -240 53 -298 10 -58 20 -118 23 -134 5 -28 4 -28 -34 -23
-22 4 -94 9 -161 13 -68 3 -123 8 -123 9 0 2 15 47 34 102 35 100 92 297 121
413 19 77 31 110 43 110 5 0 25 -87 44 -192z m3022 183 c3 -5 0 -62 -8 -128
-15 -117 -40 -394 -52 -571 -7 -93 -7 -93 -32 -90 -25 3 -27 7 -39 103 -24
184 -16 603 13 679 5 12 20 16 59 16 30 0 56 -4 59 -9z m-5013 -151 c11 -41
42 -145 70 -231 48 -152 49 -159 40 -220 -6 -34 -14 -66 -18 -70 -12 -12 -203
-13 -214 -2 -10 10 7 149 41 323 10 52 24 137 31 188 6 51 16 91 22 89 5 -1
18 -36 28 -77z m1480 -86 c14 -87 36 -198 47 -246 32 -127 38 -118 -76 -118
-54 0 -103 5 -108 10 -8 8 -7 27 1 63 21 86 44 206 60 312 23 140 24 147 38
142 7 -2 22 -70 38 -163z m675 55 c22 -41 46 -101 52 -134 20 -100 41 -319 32
-328 -4 -5 -18 -7 -31 -5 -29 4 -35 27 -80 310 -17 108 -33 207 -36 219 -12
45 22 12 63 -62z m-1436 -67 c6 -38 22 -115 34 -171 27 -118 28 -116 -67 -120
-56 -2 -57 -1 -52 21 16 71 25 122 35 198 21 165 31 180 50 72z m-427 -279 c3
-43 9 -92 13 -109 6 -30 5 -31 -37 -37 -24 -3 -45 -4 -47 -3 -1 2 7 46 18 97
12 52 23 104 26 117 9 43 21 13 27 -65z m1255 -269 c28 -8 28 -15 -3 -48 l-26
-28 -162 7 c-116 5 -166 11 -176 21 -8 7 -12 17 -7 21 22 23 311 44 374 27z
m455 -11 c103 -6 113 -11 123 -59 l6 -29 -179 3 c-123 2 -182 7 -190 15 -6 7
-15 30 -19 51 l-7 39 84 -7 c46 -3 128 -9 182 -13z m275 -42 c3 -33 -9 -50
-34 -51 -12 0 -27 67 -18 82 3 5 16 8 27 6 17 -2 23 -11 25 -37z m189 10 c22
-30 36 -61 30 -67 -3 -3 -23 -2 -44 3 -36 8 -38 11 -41 52 -3 41 -2 42 20 35
13 -4 28 -14 35 -23z m433 -14 c53 -3 55 -4 55 -33 l0 -29 -85 4 c-47 2 -88 5
-92 8 -9 5 -11 47 -2 56 3 3 20 4 37 1 18 -2 57 -5 87 -7z m-5540 -17 c289
-15 297 -16 304 -48 4 -15 40 -130 80 -257 41 -126 92 -288 114 -360 89 -290
164 -532 177 -569 14 -37 13 -40 -18 -83 -24 -34 -31 -55 -31 -84 2 -43 17
-66 128 -192 32 -37 56 -70 52 -74 -4 -4 -75 -10 -159 -14 -84 -4 -186 -10
-229 -14 -49 -4 -78 -2 -83 4 -3 6 -21 11 -40 11 -23 0 -35 5 -39 18 -2 9 -19
69 -36 132 -18 63 -39 135 -47 160 -15 44 -81 271 -129 440 -13 47 -34 114
-47 150 -13 36 -34 103 -47 150 -24 93 -99 329 -160 509 -22 62 -37 118 -34
122 6 11 6 11 244 -1z m5819 -12 c12 -32 8 -34 -38 -30 -35 4 -41 7 -41 28 0
21 5 24 35 24 28 0 38 -5 44 -22z m369 -8 c100 0 102 0 102 -23 0 -22 -2 -23
-57 -16 -32 4 -109 8 -170 8 -109 1 -113 2 -113 22 0 21 3 22 68 16 37 -4 113
-7 170 -7z m-5621 -60 c7 -30 20 -89 28 -130 9 -41 23 -96 31 -122 21 -64 13
-97 -10 -46 -26 59 -114 347 -107 353 3 3 14 5 26 3 15 -2 23 -15 32 -58z
m435 26 c4 -6 17 -51 28 -101 11 -49 36 -146 54 -215 19 -69 69 -260 110 -425
41 -165 106 -415 144 -555 38 -140 71 -262 73 -270 3 -11 -9 -16 -51 -21 -71
-9 -210 -11 -210 -3 0 26 -168 733 -256 1079 -37 145 -124 514 -124 528 0 13
224 -4 232 -17z m5743 10 c11 -2 45 -5 76 -5 43 -1 58 -5 63 -18 6 -15 -8 -16
-176 -10 -209 7 -248 13 -248 35 0 13 18 14 133 9 72 -4 141 -9 152 -11z
m-5274 -16 c23 0 30 -5 35 -27 4 -16 25 -94 49 -175 23 -82 38 -148 33 -148
-4 0 -8 4 -8 9 0 10 -59 113 -145 255 -38 62 -45 80 -34 87 8 5 20 7 27 4 8
-3 27 -5 43 -5z m5766 0 c35 0 63 -4 63 -10 0 -11 -170 -14 -243 -4 -77 11
-43 27 41 20 41 -3 104 -6 139 -6z m-5481 -135 c-16 -152 -19 -175 -27 -175
-5 0 -9 1 -9 3 0 2 -16 64 -35 138 -19 74 -35 135 -35 135 0 1 25 -8 56 -20
l56 -21 -6 -60z m-498 -72 c51 -85 69 -141 111 -343 40 -190 62 -283 96 -410
47 -172 135 -555 135 -586 0 -19 -5 -25 -17 -22 -14 2 -24 27 -41 98 -12 52
-47 183 -77 290 -29 107 -59 220 -66 250 -6 30 -29 118 -50 195 -21 77 -50
185 -64 240 -57 215 -88 321 -102 348 -16 32 -8 56 12 35 8 -7 36 -50 63 -95z
m2835 97 c26 0 28 -2 25 -37 l-3 -38 -108 -3 -107 -3 -10 26 c-6 15 -10 35
-10 47 0 19 4 20 93 14 50 -3 105 -5 120 -6z m599 -19 c61 -1 91 -5 101 -15 8
-8 18 -46 22 -83 3 -37 13 -106 21 -153 9 -47 26 -148 39 -225 13 -77 29 -164
35 -194 5 -29 19 -112 30 -185 18 -113 37 -222 57 -328 5 -26 3 -28 -29 -28
-30 0 -39 7 -68 47 -64 88 -170 201 -206 218 -20 9 -46 14 -59 11 -38 -10 -49
19 -80 204 -29 166 -76 425 -105 574 -19 95 -25 158 -16 167 3 2 42 1 88 -3
46 -3 122 -7 170 -7z m-368 -261 c15 -74 36 -187 47 -250 11 -63 29 -164 40
-225 12 -60 25 -137 30 -170 19 -125 51 -281 61 -299 6 -13 6 -22 -1 -29 -6
-6 -74 -15 -152 -20 -161 -11 -152 -14 -169 73 -13 65 -39 178 -80 353 l-30
128 24 72 c13 40 39 128 56 197 18 69 47 172 65 230 18 58 39 125 46 150 l12
45 13 -60 c6 -33 24 -121 38 -195z m639 180 c4 -36 16 -119 27 -185 11 -66 26
-169 35 -230 9 -60 22 -146 30 -190 8 -44 24 -136 35 -205 12 -69 27 -150 35
-181 17 -66 20 -128 5 -113 -5 5 -17 41 -25 79 -9 39 -23 97 -31 130 -8 33
-18 96 -24 140 -18 151 -40 300 -49 330 -6 17 -15 64 -21 105 -6 41 -18 104
-26 140 -20 84 -41 224 -36 239 2 7 11 11 21 9 12 -2 18 -20 24 -68z m282 -25
c127 -253 143 -297 175 -479 16 -95 41 -226 54 -292 14 -66 28 -148 32 -184 3
-36 10 -72 15 -81 17 -33 -5 -42 -129 -47 l-121 -5 -5 24 c-3 13 -8 42 -11 64
-3 22 -12 81 -21 130 -40 237 -54 324 -59 375 -3 30 -13 91 -22 135 -25 127
-70 435 -64 441 3 3 30 4 61 2 l55 -3 40 -80z m355 66 c28 -8 29 -11 50 -256
7 -71 12 -132 13 -135 1 -3 -2 -7 -7 -10 -5 -3 -43 63 -86 146 -42 82 -91 171
-108 196 -18 26 -32 51 -32 57 0 12 129 14 170 2z m245 -1 c7 -12 20 -82 35
-195 6 -44 20 -132 31 -195 10 -63 26 -169 34 -235 15 -114 39 -248 70 -399
15 -67 13 -86 -5 -86 -9 0 -24 29 -130 255 -40 86 -43 98 -56 245 -8 85 -21
214 -30 285 -8 72 -19 169 -24 217 -6 48 -10 91 -11 95 -1 4 -1 11 0 16 2 11
79 9 86 -3z m482 -230 c7 -118 13 -251 14 -295 1 -75 23 -388 34 -502 6 -62
10 -60 -126 -68 l-96 -5 -7 62 c-4 35 -27 171 -51 303 -24 132 -46 269 -50
305 -4 36 -20 141 -36 234 -16 93 -26 173 -23 177 3 5 78 8 167 7 l162 -3 12
-215z m1139 178 c0 -24 13 -125 28 -226 25 -166 27 -191 17 -275 -7 -51 -16
-180 -22 -287 -6 -107 -14 -198 -17 -202 -4 -4 -45 -8 -92 -9 l-85 -3 2 59 c2
61 16 192 34 300 9 58 39 331 60 540 13 141 14 145 47 145 25 0 27 -3 28 -42z
m-560 6 c9 -11 26 -130 54 -394 6 -52 22 -196 36 -320 37 -316 40 -283 -26
-292 -30 -3 -114 -8 -186 -10 l-131 -3 -16 85 c-20 108 -33 199 -52 380 -26
245 -58 473 -75 537 -4 18 -5 35 -2 38 3 3 92 3 197 -1 139 -5 193 -10 201
-20z m372 -24 c3 -32 -8 -109 -62 -465 -13 -81 -25 -202 -42 -397 -5 -63 -14
-82 -29 -59 -3 6 -19 135 -35 288 -17 153 -37 328 -45 388 -8 61 -18 147 -21
192 l-6 82 33 4 c19 2 72 4 119 3 l85 -1 3 -35z m-5368 -52 c0 -21 -3 -29 -10
-22 -5 5 -7 19 -4 32 9 31 14 27 14 -10z m2137 -64 c3 -9 -1 -37 -10 -63 -9
-25 -19 -65 -22 -88 -7 -43 -29 -83 -40 -72 -3 4 -13 43 -20 88 -8 44 -17 92
-21 106 -6 23 -4 25 27 25 19 0 41 5 49 10 21 14 30 12 37 -6z m-1079 -62 c2
-7 -12 -19 -33 -28 -30 -12 -35 -18 -29 -37 10 -34 29 -49 70 -56 28 -5 38
-11 39 -26 1 -11 21 -90 43 -175 23 -85 49 -180 57 -210 53 -202 108 -402 121
-439 8 -25 10 -49 6 -53 -4 -4 -55 -11 -113 -14 l-105 -7 -22 79 c-12 43 -29
102 -37 129 -27 92 -164 641 -183 735 -6 30 -14 64 -17 76 -5 17 0 23 27 32
45 14 170 11 176 -6z m-995 -152 c30 -114 51 -208 77 -355 24 -131 46 -226 75
-322 5 -16 3 -23 -7 -23 -7 0 -26 26 -42 58 -15 31 -56 109 -91 172 -35 63
-80 164 -100 225 -33 99 -36 116 -30 177 12 113 27 161 56 169 13 3 27 3 30 0
4 -3 18 -49 32 -101z m1608 38 c4 -29 17 -116 29 -193 11 -77 27 -192 36 -255
8 -63 29 -184 46 -268 23 -114 28 -156 20 -164 -7 -7 -40 -12 -74 -13 -35 -1
-88 -5 -120 -9 -64 -9 -57 -19 -84 109 -9 44 -25 121 -36 170 -38 175 -127
630 -125 638 1 4 32 10 67 11 74 4 190 26 205 38 15 13 28 -8 36 -64z m-1024
-78 c8 -30 23 -98 33 -150 34 -173 68 -334 93 -435 39 -158 61 -285 51 -294
-13 -12 -203 -21 -210 -10 -11 18 -65 234 -140 554 -19 83 -41 173 -49 200
-21 76 -39 165 -34 170 6 6 177 23 213 21 26 -1 30 -6 43 -56z m-932 -246 c28
-50 45 -93 45 -114 0 -46 -22 -160 -31 -160 -4 0 -12 24 -19 53 -7 28 -27 116
-46 195 -19 79 -34 146 -34 150 1 13 39 -43 85 -124z m646 -289 c17 -66 35
-136 39 -155 4 -19 19 -77 33 -127 13 -51 22 -95 19 -98 -3 -3 -13 -5 -23 -5
-13 0 -22 14 -34 52 -8 28 -15 59 -15 68 0 9 -7 43 -16 75 -21 81 -84 416 -83
445 0 23 46 -122 80 -255z m3393 65 c20 -43 36 -83 36 -89 0 -5 9 -28 20 -52
29 -65 27 -71 -22 -67 l-43 3 -13 70 c-7 39 -19 100 -26 138 -12 64 -11 77 4
77 4 0 24 -36 44 -80z m-3843 -122 c7 -13 18 -48 25 -78 21 -93 53 -224 59
-246 6 -18 1 -22 -32 -27 -92 -16 -131 -4 -118 36 2 6 6 35 9 62 3 28 10 95
16 150 14 135 19 145 41 103z m5632 -354 c5 -64 3 -114 -7 -179 -8 -49 -18
-122 -22 -160 -3 -39 -13 -115 -22 -170 l-17 -99 -57 -4 -57 -3 -5 33 c-3 18
-10 77 -16 132 -7 54 -14 110 -17 125 -11 48 -7 255 6 316 21 102 13 94 104
97 45 2 87 3 92 3 6 -1 13 -42 18 -91z m-389 49 c15 -53 16 -187 2 -293 -35
-259 -47 -346 -52 -362 -5 -16 -20 -18 -124 -18 l-119 0 -5 58 c-4 31 -11 93
-16 137 -38 306 -48 474 -27 476 6 1 80 5 162 9 83 3 155 7 162 8 6 1 14 -6
17 -15z m-650 -32 c3 -5 10 -37 15 -72 13 -86 68 -411 82 -479 5 -30 17 -73
25 -94 12 -32 13 -41 2 -47 -7 -5 -68 -9 -134 -9 l-121 0 -1 44 c-1 24 -6 72
-11 107 -6 35 -17 118 -25 184 -9 66 -22 173 -31 238 -9 65 -13 122 -10 127 8
12 202 13 209 1z m-638 -29 c16 -10 44 -141 44 -204 0 -57 -42 -158 -66 -158
-14 0 -18 20 -39 215 -7 72 -11 133 -7 137 6 5 25 11 52 17 3 0 10 -3 16 -7z
m298 -14 c3 -13 6 -45 6 -73 0 -80 29 -310 56 -440 32 -159 32 -155 -12 -145
-21 5 -41 15 -46 22 -14 21 -37 106 -55 200 -14 75 -15 97 -5 146 7 31 15 109
18 172 3 63 7 121 9 128 7 19 22 14 29 -10z m-510 -10 c4 -13 56 -358 59 -393
2 -18 -4 -20 -65 -20 -82 0 -111 19 -150 96 -21 42 -78 270 -78 311 0 18 229
24 234 6z m-1904 -10 c0 -22 -82 -248 -90 -248 -4 0 -20 48 -34 108 -15 59
-29 115 -32 124 -5 17 -7 17 129 26 16 1 27 -3 27 -10z m1283 -97 c165 -191
174 -206 182 -291 3 -41 15 -128 26 -193 10 -65 19 -131 19 -147 0 -28 -1 -28
-76 -35 -94 -9 -171 -2 -190 17 -22 22 -191 718 -179 738 3 5 35 10 69 10 l64
0 85 -99z m-364 -61 c11 -74 27 -178 36 -230 29 -180 35 -215 51 -318 9 -57
13 -106 10 -109 -3 -3 -62 -8 -130 -11 l-125 -5 -6 39 c-37 211 -111 538 -151
667 -14 43 -22 81 -20 86 3 4 36 8 73 10 37 1 104 5 148 9 44 5 83 5 87 2 4
-3 16 -66 27 -140z m-1258 70 c25 -88 24 -95 -16 -131 -19 -18 -35 -38 -35
-45 0 -12 -11 -17 -72 -29 -32 -6 -49 21 -73 115 -37 154 -39 144 25 151 30 3
77 5 104 5 l49 -1 18 -65z m714 -130 c15 -91 35 -205 45 -255 10 -49 28 -146
40 -215 12 -69 29 -140 36 -159 8 -19 13 -36 11 -37 -8 -9 -98 -16 -120 -10
-25 6 -25 7 -12 49 23 77 27 185 11 332 -39 358 -46 422 -52 450 -4 21 -3 27
4 20 6 -5 22 -84 37 -175z m-1235 118 c20 -95 34 -187 29 -192 -3 -3 -48 -8
-101 -12 l-96 -7 -12 44 c-6 24 -20 77 -31 118 -12 40 -17 77 -12 82 4 4 42
10 83 12 41 1 87 4 102 5 24 2 27 -2 38 -50z m-393 20 c11 -15 49 -144 59
-200 6 -35 4 -39 -22 -48 -40 -16 -49 -1 -75 128 -20 98 -21 114 -9 122 21 13
36 12 47 -2z m-436 -58 c4 -14 19 -65 34 -113 15 -49 25 -90 23 -92 -1 -2 -44
-6 -95 -10 -91 -7 -92 -7 -103 16 -17 38 -50 203 -42 211 8 8 80 15 136 14 33
-1 41 -5 47 -26z m1839 -159 c11 -75 26 -172 35 -216 23 -125 20 -241 -7 -295
-24 -48 -66 -75 -98 -65 -33 10 -107 255 -97 320 3 16 28 95 56 175 27 80 53
163 56 185 4 22 9 49 12 60 5 18 6 18 15 -4 4 -13 17 -85 28 -160z m5084 160
c6 -8 -19 -295 -29 -339 -5 -21 -11 -23 -52 -20 l-46 3 -3 65 c-1 36 -6 115
-9 177 l-7 112 44 4 c83 7 97 7 102 -2z m241 -137 c-1 -167 -8 -185 -81 -203
-30 -8 -50 -9 -57 -2 -6 6 -5 39 1 93 6 45 14 123 18 171 l6 88 56 -3 57 -3 0
-141z m-7715 121 c0 -16 -66 -135 -75 -135 -11 1 -81 88 -91 113 -5 13 4 17
43 20 85 6 123 7 123 2z m7057 -6 c78 -19 76 -18 65 -32 -6 -7 -16 -73 -22
-147 -17 -193 -6 -180 -145 -180 -63 0 -115 1 -115 3 0 1 6 39 14 83 8 45 18
124 22 177 6 87 9 96 28 100 43 9 107 7 153 -4z m-837 -146 c8 -76 14 -162 15
-192 l0 -54 -65 2 c-36 1 -66 3 -67 5 -1 1 9 78 23 171 13 94 24 175 24 182 0
6 10 14 23 16 12 2 25 5 28 6 3 0 12 -61 19 -136z m491 65 c6 -110 4 -251 -4
-270 -6 -16 -21 -18 -122 -18 l-117 0 6 28 c3 15 13 90 22 167 8 77 17 146 20
153 2 8 31 12 97 12 l94 0 4 -72z m-7241 58 c0 -15 68 -264 102 -371 95 -306
189 -506 277 -589 17 -17 31 -35 31 -42 0 -18 -113 -25 -325 -21 -212 4 -229
9 -304 94 -43 48 -61 81 -110 208 -33 83 -63 164 -67 181 -4 16 -21 70 -40
119 -39 108 -114 356 -114 379 0 12 10 16 38 17 20 0 105 6 187 13 148 13 325
20 325 12z m6920 -14 c0 -26 -30 -226 -35 -230 -6 -6 -14 56 -18 150 -3 48 -2
89 1 92 3 4 16 6 29 6 16 0 23 -6 23 -18z m-4915 -327 c7 -27 29 -122 49 -210
20 -88 40 -170 45 -181 6 -14 6 -25 -2 -33 -12 -12 -135 -15 -154 -3 -22 14
-139 435 -126 454 2 5 23 8 46 9 23 1 53 5 67 9 49 16 63 8 75 -45z m366 1
c35 -93 106 -141 196 -134 l53 5 26 -86 c34 -109 42 -171 23 -171 -8 -1 -48
-5 -89 -10 -41 -5 -91 -6 -110 -3 l-36 5 -43 156 c-52 190 -71 274 -64 285 10
17 26 0 44 -47z m-175 -62 c12 -49 36 -141 54 -204 38 -137 38 -142 23 -147
-13 -5 -24 31 -82 264 -45 178 -46 186 -29 181 6 -2 22 -44 34 -94z m-1057 77
c11 -7 1 -22 -44 -70 -32 -34 -63 -60 -69 -58 -6 2 -16 29 -22 60 l-11 57 31
5 c17 2 45 6 61 8 17 2 32 5 35 5 3 1 11 -2 19 -7z m519 -21 c4 -38 70 -296
94 -368 11 -35 16 -67 12 -72 -5 -5 -34 -10 -64 -12 l-55 -3 -27 120 c-15 66
-34 158 -42 205 -8 47 -18 99 -22 117 -7 34 -1 38 65 38 31 0 36 -4 39 -25z
m3361 -27 c6 -32 20 -73 32 -92 12 -20 17 -37 11 -43 -5 -5 -42 -8 -83 -6
l-74 3 -7 50 c-4 28 -5 57 -2 65 4 13 88 76 105 79 4 1 12 -25 18 -56z m-3595
5 c3 -13 25 -107 50 -210 25 -103 46 -194 46 -203 0 -8 -8 -15 -17 -15 -14 0
-23 19 -39 83 -12 45 -34 130 -49 188 -20 75 -26 116 -21 142 8 41 23 49 30
15z m3005 -29 c6 -18 11 -42 11 -53 0 -12 9 -39 20 -61 26 -51 25 -65 -5 -65
-20 0 -25 6 -30 38 -3 20 -10 61 -15 91 -6 30 -10 60 -10 68 0 24 18 13 29
-18z m334 -76 c4 -20 5 -38 3 -40 -2 -2 -34 -5 -71 -7 -74 -3 -105 13 -105 53
0 21 20 26 121 29 46 2 46 2 52 -35z m-4253 -60 c33 -32 106 -85 162 -118 109
-65 127 -85 131 -152 l2 -38 -113 0 c-111 0 -114 1 -137 27 -23 27 -61 130
-90 243 -9 33 -18 68 -21 78 -9 27 3 21 66 -40z m788 -157 c18 -57 32 -108 32
-114 0 -11 -159 -24 -200 -16 -24 5 -29 13 -40 60 -7 30 -11 56 -9 57 2 2 35
20 72 41 37 21 73 46 80 57 6 10 17 19 23 19 6 0 25 -47 42 -104z m4391 -425
c12 -8 -1 -44 -76 -198 -50 -103 -107 -228 -126 -278 -74 -187 -287 -959 -302
-1092 -14 -126 51 -299 144 -386 28 -26 51 -52 51 -56 0 -16 -43 -17 -220 -9
-149 7 -1175 34 -1650 43 -80 2 -159 3 -177 4 -27 1 -36 9 -67 60 -21 34 -36
72 -36 90 0 36 43 244 65 311 8 25 28 90 45 145 29 94 170 369 252 493 15 24
28 46 28 49 0 11 83 129 115 163 55 58 163 209 195 271 42 83 55 173 34 236
-9 26 -23 56 -32 66 -8 9 -12 20 -9 24 4 3 78 10 164 14 87 4 232 12 323 18
91 6 296 13 455 17 160 4 367 10 460 13 261 11 349 12 364 2z m-2141 -343 c21
-21 14 -37 -41 -92 -120 -120 -261 -335 -396 -605 -125 -248 -207 -541 -227
-807 -3 -51 -10 -98 -15 -105 -10 -16 -36 -16 -259 0 -260 20 -279 24 -322 69
-35 38 -58 92 -58 138 0 37 56 186 121 324 112 236 379 712 445 795 98 122
212 247 229 250 20 4 205 20 395 35 52 4 100 7 106 8 5 1 15 -3 22 -10z m-998
-88 c0 -6 -19 -37 -42 -71 -57 -81 -93 -137 -116 -179 -10 -19 -45 -80 -77
-135 -151 -260 -310 -564 -359 -688 -90 -227 -51 -452 106 -603 59 -57 87 -74
171 -105 31 -11 57 -24 57 -28 0 -14 -2688 -12 -2733 1 -75 22 -115 116 -103
241 7 86 32 202 76 352 134 465 230 636 520 925 187 187 248 205 738 221 174
5 452 14 617 19 314 9 578 22 805 40 279 22 340 23 340 10z"/>
</g>
</svg>
